PathFileType	4	(X/Y/Z)	C:\Users\WrightLab\Desktop\Jo\P2_Trial30.trc
DataRate	CameraRate	NumFrames	NumMarkers	Units	OrigDataRate	OrigDataStartFrame	OrigNumFrames
100.00	100.00	       37	19	mm	100.00	1	       591
Frame#	Time	Headset_Front			Headset_Back			Headset_Left			Headset_Right			Left_Shoulder			Right_Shoulder			Sternum			C7			Left Elbow			Right Elbow			Left Wrist			Right Wrist			Left ASIS			Right ASIS			S2			Left Knee			Right Knee			Left Ankle			Right Ankle			
		X1	Y1	Z1	X2	Y2	Z2	X3	Y3	Z3	X4	Y4	Z4	X5	Y5	Z5	X6	Y6	Z6	X7	Y7	Z7	X8	Y8	Z8	X9	Y9	Z9	X10	Y10	Z10	X11	Y11	Z11	X12	Y12	Z12	X13	Y13	Z13	X14	Y14	Z14	X15	Y15	Z15	X16	Y16	Z16	X17	Y17	Z17	X18	Y18	Z18	X19	Y19	Z19	

1	0.000																																		-645.78351	826.87653	-1245.28833										-240.34492	427.49875	-1383.24194				-242.86621	70.34596	-1366.19934				
2	0.010																																		-645.02356	826.00482	-1253.10486										-238.16917	427.74570	-1383.83728				-242.66765	71.65961	-1367.78613				
3	0.020																																		-645.75732	825.37335	-1256.39758										-235.51489	428.34073	-1382.97388				-241.41495	72.22280	-1368.16980				
4	0.030																																		-647.34802	826.23456	-1259.09839										-232.40468	427.76566	-1382.73792				-239.58275	73.00752	-1369.24316				
5	0.040																																		-647.58600	826.43829	-1266.44092										-229.33836	427.79422	-1382.99683				-237.03021	72.46629	-1370.17346				
6	0.050																																		-650.81042	827.53601	-1269.67725										-225.37605	428.96713	-1385.04956				-235.35303	71.39116	-1369.33423				
7	0.060																																		-653.33942	827.67883	-1273.36694										-222.28983	428.14377	-1385.23035				-232.74364	69.86960	-1368.15259				
8	0.070																																		-655.63440	824.20856	-1291.21118										-217.86688	427.41870	-1387.33582				-229.82707	68.37461	-1369.04456				
9	0.080																																		-659.27393	829.60126	-1283.35242										-215.86882	426.35727	-1387.35999				-227.96460	66.76196	-1368.17651				
10	0.090																																		-662.81604	829.94757	-1287.54529										-212.22636	425.59357	-1390.92102				-225.03444	66.02456	-1367.64636				
11	0.100																																		-666.57587	827.42041	-1300.62659										-210.30597	424.34793	-1391.46716				-223.21465	66.53876	-1367.37793				
12	0.110																																		-670.46558	831.49091	-1296.29248										-206.95784	423.67322	-1395.40845				-221.50113	65.07184	-1367.87622				
13	0.120																																		-675.12701	830.11285	-1308.61670										-205.78096	421.38098	-1396.93909				-219.21188	63.98219	-1367.12964				
14	0.130																																		-678.27087	832.74780	-1304.75671										-203.29002	420.71872	-1400.59485				-217.06406	63.25405	-1367.08276				
15	0.140																																		-683.50452	829.01276	-1317.19482										-200.47229	418.77420	-1402.93042				-215.29692	62.11935	-1366.35254				
16	0.150																																		-686.38184	832.98645	-1310.64429										-199.76114	416.84644	-1404.55420				-212.94444	61.54432	-1366.17834				
17	0.160																																		-690.98822	832.77197	-1311.89172										-197.05974	415.09192	-1407.23755				-210.94487	59.66598	-1367.05566				
18	0.170																																		-694.99695	829.53839	-1328.79932										-194.79886	414.38934	-1409.08496				-209.02924	58.96895	-1367.49658				
19	0.180																																		-697.99707	834.90979	-1319.51355				-432.65530	985.71436	-1275.59937				-191.88690	413.04739	-1409.43555				-206.52032	58.31183	-1368.01501				
20	0.190																												-399.71313	904.40479	-1535.65991				-700.96631	835.84888	-1322.75464				-433.81161	984.58575	-1277.11108				-188.74730	413.39694	-1409.81628				-205.08220	58.00759	-1368.71655				
21	0.200																												-397.85638	904.90338	-1534.66528				-704.91998	836.30096	-1323.49292				-435.77408	986.08472	-1275.61169				-187.18887	412.76453	-1408.64880				-204.06137	57.57459	-1369.04919				
22	0.210																												-396.13660	905.66565	-1533.21790				-707.74762	837.83594	-1326.56165				-437.50986	987.80981	-1272.95825				-183.75153	412.49222	-1408.38708				-201.63750	57.74170	-1370.61890				
23	0.220																												-394.62421	906.36462	-1532.25867				-710.69141	841.62018	-1332.14465				-438.31906	988.32813	-1274.23450				-182.40094	412.55365	-1406.48413				-199.72934	57.56168	-1372.62463				
24	0.230																												-392.91779	907.25842	-1530.43481				-713.54181	842.15533	-1332.78284				-439.19391	988.05817	-1274.56726				-180.15912	413.53860	-1404.48462				-197.89526	56.85830	-1374.18103				
25	0.240																												-391.44199	908.05695	-1528.25452				-716.16309	843.42047	-1334.14905				-440.82632	989.94025	-1271.26880				-179.12714	413.67770	-1401.97754				-195.71634	57.45665	-1375.08154				
26	0.250																												-390.01022	908.93207	-1526.43311				-719.00287	846.65723	-1338.51782				-442.44168	991.51947	-1268.04333				-178.19864	414.05713	-1400.11157				-192.82248	57.48902	-1376.55945				
27	0.260																												-388.81314	910.22717	-1524.49512				-721.22015	848.35950	-1340.68054				-442.99905	992.30634	-1267.54480				-176.86340	415.02527	-1398.47363				-191.44560	57.01649	-1378.32410				
28	0.270																												-387.62323	911.01025	-1522.26648				-723.58746	850.37708	-1343.18274				-443.25925	991.93231	-1268.84180				-176.50827	415.53070	-1396.97180				-189.51126	56.99100	-1379.24707				
29	0.280																												-386.48975	912.44214	-1520.77795				-726.00677	852.28296	-1345.75916				-445.50024	992.62897	-1263.46301				-177.87799	416.61902	-1393.59180				-187.81332	56.65816	-1380.25671				
30	0.290																												-385.26797	912.94989	-1517.95862				-728.03339	853.88849	-1348.05090				-447.56845	992.79291	-1261.02148				-177.74113	416.85419	-1392.49304				-186.25986	56.58489	-1380.84680				
31	0.300																												-384.35706	914.35553	-1516.06726				-729.53558	855.61292	-1351.16577				-449.37946	992.43610	-1259.54211				-178.84268	417.07571	-1389.07202				-185.30522	57.01246	-1381.32861				
32	0.310																												-383.46259	915.17487	-1513.59021				-732.26605	857.31000	-1353.29028				-450.95682	993.83606	-1254.12122				-178.88788	417.38138	-1388.06592				-183.57545	56.29332	-1381.70935				
33	0.320																												-382.66483	915.87250	-1510.61023				-733.93744	858.09088	-1355.24121				-453.55402	992.72058	-1253.28308				-179.07581	417.28210	-1386.28967				-181.56819	57.28995	-1384.11658				
34	0.330																												-382.09021	917.00372	-1508.84485				-735.86816	858.41052	-1356.24280				-455.20547	994.93451	-1250.02734				-179.40326	416.64316	-1383.14880				-180.10068	57.50380	-1385.50488				
35	0.340																												-381.57120	918.17487	-1506.53845				-737.48047	858.44592	-1357.20129				-458.58749	994.15845	-1247.14978				-179.99344	416.45135	-1380.02966				-179.84462	57.62773	-1384.75146				
36	0.350																												-381.02222	918.44208	-1503.07373				-739.25507	858.93140	-1358.86682				-459.55911	992.88495	-1251.94238				-180.27867	417.03726	-1378.68127				-179.08885	57.73787	-1385.75842				
37	0.360																												-380.73218	919.17566	-1500.91699				-740.67285	859.21619	-1360.92053				-465.06119	992.03375	-1240.33459				-180.88300	416.61346	-1375.64539				-178.16055	56.69741	-1386.18250				
